<svg viewBox="0 0 1968 318" xmlns="http://www.w3.org/2000/svg" style="fill-rule:evenodd;clip-rule:evenodd;stroke-linejoin:round;stroke-miterlimit:2;"><g><path d="M1374.578,266.072c-32.075,0 -56.133,-25.667 -56.133,-61.596c0,-14.542 4.742,-29.088 11.663,-37.642l71.083,90.254c-8.75,5.987 -17.496,8.983 -26.612,8.983m11.662,-150.142c-16.4,-20.104 -21.867,-32.508 -21.867,-47.054c0,-18.821 10.938,-32.508 25.15,-32.508c13.85,0 24.421,13.263 24.421,32.079c0,18.825 -10.208,36.788 -27.704,47.483m-5.829,-111.646c-52.492,0 -87.483,31.658 -87.483,79.138c0,18.392 5.833,36.788 20.779,60.313c-44.833,16.254 -68.892,48.762 -68.892,88.546c0,49.617 37.546,85.121 93.679,85.121c30.617,0 58.321,-11.975 80.917,-37.212l23.696,30.371l99.142,0l-73.992,-92.825l76.908,-89.4l-59.413,0l-34.625,67.588l-47.021,-59.033c33.167,-10.267 53.579,-34.646 53.579,-67.158c0,-38.925 -31.35,-65.446 -77.275,-65.446m-83.929,176.258c-1.979,7.667 -3.038,15.787 -3.038,23.933c0,43.875 27.55,78.163 66.15,85.25c-6.725,1.779 -13.767,2.675 -21.1,2.675c-41.721,0 -68.679,-23.6 -68.679,-60.121c0,-15.933 5.233,-36.083 26.667,-51.738m51.75,-145.163c-5.625,9.312 -8.858,20.8 -8.858,33.496c0,24.192 10.992,42.621 27.496,62.854l123.479,153.829l-35.037,0l-120.5,-155.233c-11.833,-18.621 -16.883,-32.65 -16.883,-46.904c0,-22.721 11.079,-39.583 30.304,-48.042" style="fill-rule:nonzero;"/><path d="M1846.737,286.604c-16.254,0 -25.667,-22.671 -25.667,-82.983c0,-60.317 9.413,-82.988 25.667,-82.988c16.25,0 25.662,22.671 25.662,82.988c0,60.312 -9.412,82.983 -25.662,82.983m0,-196.767c-68.867,-0 -121.483,48.333 -121.483,113.783c0,17.629 3.846,34.004 10.771,48.538c-12.867,8.083 -27.446,13.362 -43.908,13.362c-31.225,0 -63.55,-20.692 -63.55,-66.462c0,-40.637 27.817,-77.996 52.2,-77.996c13.571,0 23.429,11.033 25.95,23.617c0.225,1.125 1.179,1.746 2.15,1.746c0.717,0 1.446,-0.342 1.888,-1.075l27.042,-44.779c0.8,-1.329 0.154,-3.079 -1.325,-3.542c-15.775,-4.917 -32.083,-7.192 -51.429,-7.192c-80.412,0 -139.875,50.046 -139.875,122.338c0,62.45 45.771,105.229 108.65,105.229c54.271,0 79.346,-27.825 90.763,-50.433c21.321,30.95 58.454,50.433 102.158,50.433c68.867,0 121.054,-48.338 121.054,-113.783c0,-65.45 -52.188,-113.783 -121.054,-113.783m-217.904,35.854c-15.208,19.317 -25.267,45.954 -25.267,73.367c0,41.8 25.733,84.075 75.083,90.596c-7.517,1.829 -15.8,2.75 -24.833,2.75c-50.033,0 -83.65,-32.242 -83.65,-80.229c0,-39.55 22.496,-70.867 58.667,-86.483m256.271,-4.263c34.908,12.888 57.688,43.563 57.688,82.192c0,38.625 -22.779,69.3 -57.688,82.188c12.296,-25.008 12.296,-62.033 12.296,-82.188c0,-20.158 0,-57.183 -12.296,-82.192m-76.7,-0.075c-12.333,25.008 -12.333,62.092 -12.333,82.267c0,20.154 0,57.171 12.292,82.179c-17.787,-6.562 -32.742,-17.837 -43.192,-33.012l-3.729,-5.412l-2.846,-5.967c-5.538,-11.621 -8.342,-24.333 -8.342,-37.788c0,-38.704 22.967,-69.425 58.15,-82.267" style="fill-rule:nonzero;"/><path d="M118.862,289.655c-18.296,0 -26.817,-26.55 -26.817,-83.558c0,-57.008 8.521,-83.558 26.817,-83.558c18.292,0 26.812,26.55 26.812,83.558c0,57.008 -8.521,83.558 -26.812,83.558m0,-194.796c-67.763,0 -118.863,47.821 -118.863,111.238c0,63.417 51.1,111.238 118.863,111.238c67.521,0 118.438,-47.821 118.438,-111.238c0,-63.417 -50.917,-111.238 -118.438,-111.238" style="fill-rule:nonzero;"/><path d="M334.508,206.096l0,-206.096l-87.763,0c1.213,36.817 1.646,64.117 1.646,103.613l0,102.483c0,40.121 -0.433,67.637 -1.646,104.463l88.988,0c-1.225,-37.408 -1.225,-65.617 -1.225,-104.463" style="fill-rule:nonzero;"/><path d="M668.053,180.823l-47.296,0l0.017,-1.421c0.546,-48.4 13.504,-58.558 24.275,-58.558c15.05,0 23.004,20.254 23.004,58.571l0,1.408Zm-127.367,70.196c-15.158,9.488 -31.254,14.5 -46.55,14.5c-29.846,0 -61.571,-20.233 -61.571,-57.729l0,-1.404l101.696,0l-0.029,2.25c0,14.338 2.367,28.033 7.029,40.704l0.392,1.071l-0.967,0.608Zm-108.121,-71.617c0.546,-48.4 13.504,-58.558 24.275,-58.558c15.05,0 23.004,20.254 23.004,58.571l0,1.408l-47.296,0l0.017,-1.421Zm214.175,-84.546c-41.6,0 -76.8,19.183 -96.579,52.633l-1.404,2.375l-1.096,-2.537c-14.629,-33.838 -46.283,-52.471 -89.125,-52.471c-65.192,0 -112.508,47.854 -112.508,113.779c0,62.983 45.713,108.7 108.696,108.7c28.05,0 75.738,-13.496 92.163,-50.675l1.104,-2.5l1.392,2.35c18.837,31.825 53.808,50.825 93.55,50.825c61.271,0 92.054,-33.667 96.908,-68.054c0.346,-2.462 -2.533,-4.05 -4.513,-2.546c-17.408,13.254 -33.333,18.783 -53.108,18.783c-40.342,0 -61.446,-29.042 -61.446,-57.729l0,-1.404l123.654,0l0,-14.267c0,-59.992 -37.433,-97.263 -97.688,-97.263" style="fill-rule:nonzero;"/><path d="M975.161,206.096l0,-40.654c0,-43.537 -24.938,-70.583 -65.079,-70.583c-27.242,0 -51.429,13.988 -63.125,36.504l-2.65,5.112l0,-136.475l-87.767,-0c1.217,36.775 1.65,64.075 1.65,103.613l0,102.483c0,40.158 -0.433,67.679 -1.65,104.463l89.413,0c-1.225,-37.408 -1.225,-65.617 -1.225,-104.463l0,-27.525c0,-21.567 8.758,-34.438 23.429,-34.438c12.812,0 20.462,10.025 20.462,26.817l0,35.146c0,39.804 0,66.267 -1.629,104.463l89.392,0c-1.221,-37.408 -1.221,-65.617 -1.221,-104.463" style="fill-rule:nonzero;"/><path d="M1107.764,241.243c0,18.438 -11.362,28.088 -22.579,28.088c-11.367,0 -19.617,-9.321 -19.617,-22.158c0,-16.879 13.675,-31.838 35.696,-39.029l6.5,-1.771l0,34.871Zm104.463,31.475c-12.65,0 -19.617,-8.921 -19.617,-25.121l0,-75.804c0,-46.738 -35.183,-76.938 -89.638,-76.938c-21.946,0 -45.025,6.7 -61.733,17.921c-12.787,8.583 -27.742,23.675 -31.054,48.338c-0.333,2.492 2.587,4.05 4.558,2.488c16.488,-13.083 38.688,-22.013 56.046,-22.013c17.446,0 36.129,10.342 36.129,25.738l0,16.137l-48.9,12.983c-46.312,12.629 -68.825,33.933 -68.825,65.125c0,36.608 29.754,55.762 59.15,55.762c27.017,0 50.775,-15.121 60.529,-38.517l1.621,-3.892l1.037,4.083c5.95,23.379 26.85,37.9 54.538,37.9c30.233,0 51.425,-22.867 55.779,-41.408c0.475,-2.021 -1.254,-3.858 -3.283,-3.442c-2.071,0.425 -4.25,0.658 -6.337,0.658" style="fill-rule:nonzero;"/></g></svg>